<?xml version="1.0" encoding="UTF-8" standalone="no"?>
<svg
   version="1.1"
   width="790"
   height="790"
   viewBox="10 10 710 710"
   id="svg32"
   sodipodi:docname="spine-radial.svg"
   inkscape:version="1.2.2 (b0a8486541, 2022-12-01)"
   xmlns:inkscape="http://www.inkscape.org/namespaces/inkscape"
   xmlns:sodipodi="http://sodipodi.sourceforge.net/DTD/sodipodi-0.dtd"
   xmlns:xlink="http://www.w3.org/1999/xlink"
   xmlns="http://www.w3.org/2000/svg"
   xmlns:svg="http://www.w3.org/2000/svg">
  <defs
     id="defs36">
    <linearGradient
       inkscape:collect="always"
       id="linearGradient5797-6">
      <stop
         style="stop-color:#f38618;stop-opacity:1"
         offset="0"
         id="stop5793" />
      <stop
         style="stop-color:#f36518;stop-opacity:1"
         offset="0.61453104"
         id="stop1017" />
      <stop
         style="stop-color:#009374;stop-opacity:1"
         offset="1"
         id="stop5795" />
    </linearGradient>
    <radialGradient
       inkscape:collect="always"
       xlink:href="#linearGradient5797-6"
       id="radialGradient4242"
       cx="365"
       cy="365"
       fx="365"
       fy="365"
       r="155.88492"
       gradientTransform="matrix(1.0000566,0.00254415,-0.00560618,2.2036777,2.025602,-440.27101)"
       gradientUnits="userSpaceOnUse" />
  </defs>
  <sodipodi:namedview
     id="namedview34"
     pagecolor="#505050"
     bordercolor="#eeeeee"
     borderopacity="1"
     inkscape:pageshadow="0"
     inkscape:pageopacity="0"
     inkscape:pagecheckerboard="0"
     showgrid="false"
     inkscape:snap-others="true"
     inkscape:snap-grids="false"
     inkscape:snap-to-guides="false"
     inkscape:object-nodes="false"
     inkscape:snap-nodes="false"
     inkscape:snap-center="false"
     inkscape:snap-object-midpoints="true"
     inkscape:snap-bbox="true"
     inkscape:bbox-paths="true"
     inkscape:snap-bbox-edge-midpoints="true"
     inkscape:zoom="0.22753165"
     inkscape:cx="-617.49651"
     inkscape:cy="624.089"
     inkscape:window-width="1920"
     inkscape:window-height="1008"
     inkscape:window-x="1920"
     inkscape:window-y="0"
     inkscape:window-maximized="1"
     inkscape:current-layer="svg32"
     inkscape:showpageshadow="0"
     inkscape:deskcolor="#505050" />
  <path
     id="path2"
     style="fill:url(#radialGradient4242);fill-opacity:1;stroke-width:1"
     d="m 391.83704,21.479999 c -14.34633,-0.03051 -28.89787,4.496126 -39.64085,13.28968 -9.18183,8.866578 -15.59791,19.530566 -16.00168,32.563317 0.47767,8.443915 2.89353,16.065775 9.26996,21.929464 4.34777,3.607906 8.01473,7.034334 11.03933,11.85557 2.27493,5.12484 1.83519,10.04717 0.12989,15.27672 -2.15114,2.21632 -3.63154,2.93872 -6.43858,4.12505 -2.98234,1.22602 -5.04507,2.30894 -7.68664,4.24968 -1.9375,2.74999 -1.93748,2.7514 -2.37497,6.6264 0.63069,17.73384 15.61956,37.00662 27.66766,48.5492 0.94164,0.87524 1.85598,1.7256 2.76993,2.57509 7.0688,6.71794 13.44842,13.46048 23.66726,14.15682 6.00332,-0.40223 10.72749,-3.11135 14.70624,-7.53217 4.10846,-5.36382 6.3957,-9.69624 5.62587,-16.62483 -1.96912,-3.55871 -4.70895,-5.20954 -8.19394,-7.19513 -6.17732,-3.45849 -13.57839,-6.96421 -17.80617,-12.80521 -0.20828,-3.36224 -0.20773,-3.36199 1.00055,-5.99975 4.1552,-1.41729 6.70499,-0.58235 10.67247,1.09884 6.81401,2.9593 11.92113,4.99971 19.32629,2.90158 3.89453,-1.9999 5.94703,-5.18541 8.00084,-8.99963 0.44293,-4.126 0.42255,-6.30398 -1.75008,-9.88784 -4.0763,-5.07413 -6.83066,-8.90209 -6.9371,-15.55055 0.20563,-5.21154 1.7653,-8.62875 5.44857,-12.33653 0.65477,-0.54453 1.29011,-1.07235 1.92561,-1.60087 1.43117,-1.21583 2.86919,-2.42385 4.31288,-3.624775 5.42175,-4.46915 10.43699,-8.860222 14.00059,-14.999382 3.98172,-9.150443 4.28868,-18.858801 0.81272,-28.189009 -5.5709,-12.197888 -13.61998,-22.292801 -26.20372,-27.783524 -0.88717,-0.349297 -1.7491,-0.689607 -2.61018,-1.02863 -7.59169,-3.362982 -16.12496,-5.021278 -24.73275,-5.039581 z m -78.71297,85.869481 c -8.1701,0.34772 -16.99585,5.72576 -21.55382,12.16978 0.17998,3.9691 0.78665,6.61241 2.70674,10.10549 3.35467,4.91064 6.46972,9.62072 8.29398,15.3329 1.49805,4.96478 3.10052,9.86881 4.83069,14.75714 0.35462,0.99601 0.70025,1.96295 1.04443,2.92966 1.26527,3.6793 2.57183,7.30744 4.12505,10.87609 7.041,13.25739 21.09159,32.54727 35.99852,37.99961 5.06613,0.70833 9.58046,0.79949 14.00059,-1.99933 3.27397,-3.33405 5.74442,-6.54868 6.56322,-11.18854 -1.53531,-7.67657 -1.53533,-7.67714 -14.543,-20.81308 -16.18349,-15.48275 -30.69635,-35.78344 -32.57735,-58.59149 -0.13428,-1.8036 -0.28694,-3.60631 -0.44235,-5.40821 -1.35931,-2.71862 -2.56977,-4.1296 -5.00096,-5.99975 -1.12609,-0.16724 -2.27858,-0.21994 -3.44574,-0.17027 z m -38.99839,29.73722 c -2.87502,-0.0293 -4.78486,1.49056 -12.42605,7.57078 -3.78203,3.31014 -5.95629,6.06064 -6.4421,11.11306 0.45819,4.03208 0.45846,4.03111 4.93777,8.31153 6.7038,6.37259 11.62169,13.42859 15.69801,21.69777 8.5012,17.43858 18.24721,31.32227 35.39994,41.20309 0.66773,0.37371 1.31615,0.73614 1.96423,1.09885 3.03256,1.739 5.92239,3.2756 9.45251,3.68797 4.52738,0.0742 7.35064,-0.32442 10.86029,-3.24914 3.09276,-3.4997 3.98716,-5.22976 4.06185,-9.93873 -1.18477,-6.15853 -4.91476,-10.20968 -9.56133,-14.18666 -7.67365,-6.8423 -7.67414,-6.84247 -14.6255,-14.43767 -0.58189,-0.63062 -1.14669,-1.24333 -1.71145,-1.8554 -0.59218,-0.64173 -1.16653,-1.26413 -1.7413,-1.88699 -1.65072,-1.78905 -3.30624,-3.57194 -4.98341,-5.33623 -8.82765,-9.22786 -15.52739,-17.98542 -19.56327,-30.23398 -1.68582,-5.62418 -3.13968,-9.26833 -7.87621,-13.12468 -1.42071,-0.24257 -2.48563,-0.4238 -3.44398,-0.43357 z m -29.87765,38.78249 c -3.14418,-0.0709 -4.83794,0.76923 -7.80248,2.96301 -5.98844,6.95642 -9.72938,14.48002 -9.87555,23.68831 1.96506,3.9301 1.96536,3.93034 11.4378,9.41039 7.61417,4.27108 13.22968,9.49689 18.73826,16.26147 8.18301,10.29053 16.20389,18.20932 28.26098,23.78837 1.21125,0.52328 2.3877,1.03154 3.56334,1.53943 5.01669,2.206 9.98112,4.48696 15.41364,5.40996 4.3091,0.1856 7.28055,-0.67145 10.58646,-3.41063 3.16029,-3.70518 3.37314,-7.04245 3.49663,-11.71865 -1.14592,-5.26942 -1.14662,-5.26947 -9.62277,-11.02178 -0.67967,-0.44949 -1.33966,-0.88551 -1.99934,-1.32177 -3.71276,-2.51029 -7.43962,-4.99715 -11.18854,-7.45318 -15.07757,-9.85279 -31.22303,-19.89186 -39.93573,-36.23373 -0.91026,-1.75335 -1.82692,-3.50393 -2.75062,-5.25022 -1.76612,-2.99545 -3.37406,-5.51009 -6.87919,-6.56673 -0.51633,-0.0461 -0.99372,-0.0741 -1.44289,-0.0842 z m -22.05234,49.08809 c -5.92211,0.91894 -5.92212,0.9185 -9.82814,11.96439 -0.35593,1.20196 -0.70247,2.36865 -1.04794,3.53526 -1.55943,5.10204 -2.17255,8.8601 -0.74953,14.06378 2.56963,3.44984 4.19241,4.77404 8.3484,5.93305 11.18439,1.51714 19.92148,4.89004 28.84023,12.06621 16.217,13.50986 35.86301,18.46069 56.81159,17.00047 3.19098,-1.59549 5.28661,-3.92968 7.0003,-7.00029 0.66953,-3.83157 0.49757,-7.29339 -0.58979,-11.02354 -2.97298,-4.16709 -2.97328,-4.1675 -15.14684,-8.58888 -0.848,-0.30062 -1.67128,-0.59117 -2.49433,-0.88294 -2.71733,-0.98329 -5.43471,-1.96601 -8.15532,-2.9402 -16.20015,-5.79253 -36.51644,-10.16704 -48.2385,-23.56368 -2.375,-2.99999 -2.37596,-3.00106 -4.16893,-4.93075 -3.35906,-3.23561 -5.77029,-5.51937 -10.5812,-5.63288 z m -3.98461,54.11186 c -2.22557,0.10138 -4.24176,0.81343 -6.64046,2.26264 -1.99999,3.1875 -2.00032,3.18755 -2.40657,5.51177 -0.29679,8.47081 0.6209,19.96145 6.5088,26.53547 2.98737,1.79519 2.98757,1.79646 11.73972,1.62019 2.48357,-0.11083 4.96815,-0.20234 7.45317,-0.27384 1.21856,-0.0312 2.40169,-0.061 3.58441,-0.0913 3.61053,-0.14539 6.66869,-0.22333 10.11954,0.88644 17.78677,6.74671 34.51108,9.78096 53.4308,5.78736 1.07695,-0.23994 1.07711,-0.24053 2.13274,-0.4757 2.72325,-0.5559 4.80984,-1.24022 7.43737,-2.31178 2.6932,-2.30841 4.68003,-4.72035 5.55916,-8.2308 -0.22934,-3.70657 -0.46228,-5.62417 -2.55928,-8.76967 -4.71297,-4.30108 -8.96125,-4.56345 -15.21529,-4.90969 -2.44647,-0.10375 -4.89086,-0.22574 -7.33557,-0.36511 -1.92901,-0.11724 -1.92881,-0.11853 -3.81962,-0.23346 -16.95765,-1.01811 -38.61552,-1.07482 -53.48522,-10.15113 -3.90118,-2.43734 -7.8623,-4.64786 -12.14519,-6.34029 -1.61298,-0.35249 -3.02318,-0.51195 -4.35851,-0.45113 z m 106.29111,44.88406 c -19.35945,0.11266 -42.12724,9.39044 -61.58436,9.28223 -3.92849,-0.0282 -7.85677,-0.0384 -11.78535,-0.0404 -2.51041,0.009 -5.01999,0.0166 -7.53041,0.0246 -1.2039,-0.0128 -2.37203,-0.0245 -3.54052,-0.0369 -1.64329,3.6e-4 -1.64366,-6.3e-4 -3.2544,0 -3.0061,-0.0223 -4.5904,-0.13716 -7.02487,1.65178 -1.6427,2.28548 -1.86204,4.32463 -1.75885,7.10035 1.48172,7.00644 5.17462,14.74516 10.58294,19.48428 3.74386,2.65374 5.44316,2.63743 9.96332,2.10114 4.93704,-1.19862 9.80254,-2.15202 14.84491,-2.80504 0.73847,-0.093 1.4546,-0.18353 2.17135,-0.27383 0.75678,-0.0956 1.49125,-0.18806 2.22577,-0.28085 21.16522,-2.67348 55.15823,-4.75446 69.75897,-22.64038 0.64323,-2.19913 0.77501,-3.82008 0.53889,-6.09805 -1.01876,-3.59519 -2.41815,-4.90411 -5.53985,-6.902 -2.60696,-0.41209 -5.3019,-0.58307 -8.06754,-0.56697 z m 31.77868,17.41999 c -1.78569,0.0602 -3.56287,0.49183 -5.48895,1.27263 -1.44916,0.80016 -1.44951,0.80076 -2.86998,1.58507 -1.10691,0.59782 -2.18181,1.17861 -3.25615,1.75885 -15.7972,8.67362 -31.86561,16.16313 -48.99155,21.85749 -0.83875,0.27678 -1.65393,0.54408 -2.46801,0.81273 -4.10142,1.35363 -8.20333,2.70507 -12.32248,4.00393 -0.80992,0.25431 -1.5959,0.50093 -2.382,0.74777 -1.50332,0.48164 -3.00612,0.96308 -4.50947,1.44465 -4.67125,1.42083 -8.30752,2.69762 -11.422,6.66326 -0.40625,2.47657 -0.40625,2.47754 0,5.00097 3.02011,6.47494 8.0788,12.05208 14.00059,15.99993 3.66874,1.38442 5.71041,1.50679 9.36826,0.0684 0.90262,-0.42574 1.77799,-0.84009 2.65407,-1.25331 1.00348,-0.46966 1.97851,-0.92385 2.95248,-1.3797 l 3.02445,-1.43586 c 11.41321,-5.31044 22.83595,-10.56637 33.67971,-16.98116 1.1289,-0.68664 2.2254,-1.35221 3.3211,-2.01865 11.06196,-6.62087 24.21202,-13.45469 32.31231,-23.74975 1.81653,-3.4985 2.30339,-5.37541 1.68688,-9.25064 -2,-3.00001 -1.99941,-2.99899 -3.7494,-4.18649 -1.95998,-0.70777 -3.75417,-1.0204 -5.53986,-0.96017 z m 35.95288,9.93873 c -4.00305,-0.26976 -8.43246,2.96512 -26.14755,15.91041 -3.27015,2.39153 -6.55247,4.7646 -9.85272,7.1144 -1.68091,1.19552 -3.35949,2.39405 -5.03783,3.59317 -1.20826,0.86338 -2.41637,1.72769 -3.62478,2.59088 -8.06672,5.75162 -16.13956,11.49855 -23.99901,17.53235 -0.61691,0.47737 -1.2145,0.94093 -1.81327,1.40427 -4.33318,3.30324 -7.92125,6.70379 -11.18853,11.06215 -0.85825,4.11957 -0.30515,5.5314 2.00108,9.06282 4.53793,4.8575 10.21953,8.75402 16.99872,9.19097 5.65997,-0.71857 5.66025,-0.7178 13.81277,-9.00314 3.0601,-3.19236 6.25004,-6.02848 9.68772,-8.81181 5.50692,-4.43276 10.84129,-8.99894 16.05083,-13.77767 3.72934,-3.4234 7.44602,-6.8322 11.35179,-10.05459 8.64353,-6.95988 19.66077,-14.76681 21.78553,-26.35643 -0.89994,-4.25424 -2.17722,-5.71089 -5.68731,-8.2501 -1.71606,-0.63932 -3.00309,-1.11775 -4.33744,-1.20768 z m 37.46246,7.83234 c -3.82891,0.45947 -3.8296,0.45964 -6.71944,4.73064 -5.94267,8.82877 -12.37838,13.39557 -21.53978,18.56623 -15.59795,8.78916 -36.12133,22.49035 -42.86716,40.07969 -0.5996,4.67244 0.28373,7.80553 2.68743,11.81167 3.46852,3.28105 6.38926,5.85319 11.18854,6.68785 6.29341,-1.00695 11.29327,-4.32806 15.94199,-8.56079 4.9644,-4.60526 10.07468,-8.69145 15.77349,-12.35408 7.83386,-4.93297 15.35421,-9.76378 22.1208,-16.14036 0.7411,-0.703 0.74104,-0.70289 1.46747,-1.39199 0.51307,-0.48558 1.00985,-0.95753 1.50783,-1.42884 4.30348,-4.07771 8.75818,-7.40172 13.81277,-10.49869 4.30625,-2.5267 7.6959,-4.88183 10.50045,-9.12602 0.31034,-3.16545 0.42607,-5.14584 -1.00054,-7.99908 -6.61684,-6.67499 -13.10936,-13.43129 -22.87385,-14.37623 z m 46.12333,29.53008 c -4.08162,0.16133 -6.42255,3.18118 -9.43671,7.59536 -5.99541,8.85408 -13.44183,12.51731 -23.61459,15.37678 -12.03778,3.20874 -24.51113,6.18802 -34.87686,13.4108 -0.55532,0.41221 -1.09523,0.81285 -1.63422,1.21294 -4.81616,3.53556 -9.15007,7.1497 -12.61212,12.08552 -2.21014,4.45242 -1.55895,8.08138 -0.44937,12.8526 1.92472,3.23702 4.10934,5.48654 7.37419,7.31099 6.46706,2.00391 11.79105,0.46904 17.97117,-1.80624 1.62473,-0.6341 1.62498,-0.63354 3.21754,-1.25508 3.30285,-1.24752 6.60011,-2.50286 9.88783,-3.78977 1.7516,-0.68813 3.50707,-1.36885 5.26602,-2.03795 8.55484,-3.25187 15.51031,-7.41822 22.65793,-13.11064 6.76811,-5.80746 12.83493,-8.85822 21.37478,-11.18678 4.89681,-1.20344 8.67366,-2.0592 12.68058,-5.23092 2.51548,-3.33888 2.79749,-4.98957 2.55401,-9.05404 -2.01313,-8.34938 -8.88726,-16.38049 -15.60847,-21.52749 -1.837,-0.63588 -3.39117,-0.89985 -4.75171,-0.84608 z m 28.18374,48.46319 c -3.32551,-0.0269 -6.02843,1.04554 -9.01543,3.52648 -9.11284,7.60309 -17.47827,11.56385 -29.54237,12.41904 -3.04024,0.16194 -6.06472,0.34198 -9.08915,0.69686 -14.11749,1.89473 -32.60956,3.51271 -41.9737,15.55231 -1.10098,4.31923 -0.84302,7.87221 0.18783,12.18733 1.93312,4.57845 4.53401,6.84833 8.99962,9.00139 17.58737,1.44016 36.84232,-0.71239 52.12482,-9.5631 6.46946,-3.75049 11.48957,-6.29543 19.09109,-6.49652 1.14007,-0.002 1.13987,-0.002 2.25736,-0.004 1.65493,-0.006 3.30917,-0.006 4.96411,0 2.85836,0.0545 5.70266,0.0819 8.56254,0.0614 2.63321,-1.3166 4.12031,-2.72308 5.99976,-4.99921 0.83264,-4.353 0.47249,-8.60919 0,-13.00006 -1.47019,-7.10723 -3.14754,-14.34473 -8.99963,-18.99979 -1.28045,-0.24178 -2.45834,-0.37372 -3.56685,-0.38267 z m 6.58604,56.04099 c -2.13729,0.021 -4.19573,0.40778 -6.39471,1.23225 -10.50846,4.44108 -20.22551,6.42254 -31.58559,4.64638 -7.03545,-1.25724 -13.85553,-1.8174 -21.00089,-1.8589 -1.26637,0.004 -2.49572,0.006 -3.72483,0.009 -4.79229,-0.0622 -9.53361,-0.0731 -14.31305,0.31245 -6.19624,1.20578 -11.10832,2.68849 -14.99938,7.90605 -1.91362,4.00664 -1.80492,7.79481 -1.00054,12.09429 2.14754,4.94868 5.36724,7.50611 10.06688,9.89836 13.44326,5.04795 29.43151,6.29504 42.99529,1.60264 8.82619,-3.0745 17.95678,-4.70129 26.74963,-0.56347 4.28223,2.2614 8.33597,3.11437 13.18787,3.06307 2,-1 2.00025,-1.0003 3.98463,-3.11748 5.48076,-7.83874 7.09283,-19.50478 6.01555,-28.88237 -1.4906,-2.98119 -3.18972,-4.20611 -5.99976,-5.99975 -1.38798,-0.23554 -2.69873,-0.3549 -3.9811,-0.3423 z m -87.00169,40.36054 c -4.9682,0.0817 -9.4643,1.2273 -13.0176,3.98111 -2.91179,3.83131 -4.25871,6.6938 -4.56213,11.49923 0.29906,4.91788 2.00896,8.14149 5.56268,11.50099 12.07863,9.87486 23.35344,13.66228 38.92993,13.19139 2.09476,-0.0677 4.18885,-0.12283 6.28412,-0.17203 1.34505,-0.0242 2.69048,-0.0484 4.03552,-0.0737 5.42266,-0.16219 8.30338,0.31991 12.68058,3.42115 0.66141,0.51267 1.30296,1.01026 1.94492,1.50785 1.37633,1.03989 2.75145,2.08098 4.12504,3.1245 3.12501,2.37499 3.12476,2.37542 5.99977,4.00042 4.16428,0.48991 5.46532,0.35687 8.99962,-1.99934 6.22472,-7.38371 13.19667,-16.58236 13.37569,-26.625 -0.37499,-3.375 -0.37617,-3.37605 -1.37618,-4.37606 -5.36626,-3.9238 -9.31108,-4.41285 -15.90163,-4.30234 -2.15585,0.0771 -4.31185,0.14164 -6.46842,0.19485 -1.58405,0.0326 -1.58412,0.033 -3.1368,0.0649 -4.5629,0.14985 -8.42644,-0.25768 -12.76133,-1.7255 -10.65838,-4.13592 -29.80917,-13.45759 -44.71378,-13.21244 z m -22.70708,31.50309 c -3.58986,-0.0666 -6.86924,1.12716 -9.74038,3.81786 -3.19827,3.5354 -6.62374,6.55937 -10.40039,9.47182 -17.38489,13.32897 -34.16388,28.91953 -46.07241,47.44509 -0.37288,0.59267 -0.73519,1.16782 -1.09709,1.74305 -1.87343,2.9623 -3.65794,5.95095 -5.29587,9.05053 -7.6926,15.6126 -11.15241,34.78145 -5.61357,51.62983 3.31154,8.44228 7.48433,16.10679 15.91041,20.31982 -0.75763,-5.86703 -1.15122,-11.61121 -1.18662,-17.52708 -0.001,-1.01071 -0.001,-1.99256 -0.002,-2.97354 -0.12837,-10.28329 0.28926,-18.65985 6.4263,-27.17442 0.59899,-0.79024 1.17923,-1.55884 1.76061,-2.32583 3.65962,-5.0156 7.26893,-9.66113 12.18732,-13.49856 2.63182,-1.91202 5.21503,-3.82569 7.74631,-5.87161 7.31398,-5.92057 14.8409,-10.66735 23.30566,-14.78173 0.88917,-0.42807 0.88903,-0.42824 1.76061,-0.84783 16.07992,-7.89602 32.23693,-10.10758 49.4374,-4.99921 8.4869,2.53069 17.05867,4.92015 25.71924,1.89753 4.65403,-3.02512 8.34843,-5.26024 9.84395,-10.89715 -0.07,-3.98966 -0.56379,-6.30564 -2.68743,-9.68773 -4.38473,-4.38473 -8.40807,-6.6124 -14.42714,-7.67961 -15.98907,-2.71464 -29.21486,-10.84803 -42.57753,-19.76162 -3.68293,-2.46503 -7.35473,-4.85374 -11.3079,-6.87216 -1.26221,-0.29344 -2.4931,-0.45526 -3.68973,-0.47745 z" />
</svg>
